<?xml version="1.0" standalone="no"?>
<!DOCTYPE svg PUBLIC "-//W3C//DTD SVG 20010904//EN"
 "http://www.w3.org/TR/2001/REC-SVG-20010904/DTD/svg10.dtd">
<svg version="1.0" xmlns="http://www.w3.org/2000/svg"
 width="365.000000pt" height="90.000000pt" viewBox="0 0 365.000000 90.000000"
 preserveAspectRatio="xMidYMid meet">
<metadata>
Created by potrace 1.16, written by Peter Selinger 2001-2019
</metadata>
<g transform="translate(0.000000,90.000000) scale(0.100000,-0.100000)"
fill="#000000" stroke="none">
<path d="M405 881 c-76 -32 -85 -149 -15 -189 19 -11 30 -25 30 -39 0 -20 -5
-21 -111 -25 -107 -3 -112 -4 -135 -31 -17 -20 -24 -40 -24 -72 0 -37 -4 -45
-22 -51 -53 -16 -58 -29 -58 -155 l0 -117 31 -26 c17 -14 35 -26 40 -26 5 0 9
-15 9 -33 0 -66 5 -67 303 -67 253 0 267 1 277 19 5 11 10 33 10 49 0 24 6 32
30 42 52 21 60 43 60 158 0 101 -1 104 -29 133 -16 16 -37 29 -45 29 -12 0
-16 11 -16 46 0 87 -29 104 -176 104 -93 0 -94 0 -94 24 0 16 7 27 20 31 34
11 60 54 60 99 -1 77 -73 126 -145 97z m273 -309 c9 -7 12 -63 10 -248 l-3
-239 -240 0 -240 0 -3 235 c-1 129 0 240 2 247 4 10 58 13 233 13 125 0 234
-4 241 -8z"/>
<path d="M282 477 c-12 -13 -22 -36 -22 -51 0 -34 41 -76 75 -76 35 0 75 42
75 78 0 63 -84 95 -128 49z"/>
<path d="M501 474 c-25 -32 -26 -46 -6 -84 27 -53 95 -50 131 5 14 21 14 30 4
55 -23 57 -93 69 -129 24z"/>
<path d="M295 268 c-51 -27 -60 -84 -20 -123 23 -24 28 -25 173 -25 134 0 150
2 169 20 12 10 24 28 28 40 9 27 -14 72 -45 87 -32 16 -276 17 -305 1z"/>
<path d="M1850 420 l0 -280 50 0 c39 0 50 4 50 16 0 13 5 12 26 -5 19 -15 41
-21 76 -21 108 0 153 60 153 205 0 80 -3 95 -27 136 -16 28 -39 51 -57 59 -30
12 -112 10 -143 -4 -16 -7 -18 0 -18 83 l0 91 -55 0 -55 0 0 -280z m220 8 c29
-32 29 -159 0 -188 -24 -24 -57 -26 -88 -4 -20 14 -22 24 -22 99 0 75 2 85 22
99 31 22 64 20 88 -6z"/>
<path d="M2940 420 l0 -280 55 0 55 0 0 59 c0 41 5 62 16 72 10 8 18 9 22 2 4
-5 25 -38 47 -71 l40 -62 68 0 67 0 -72 108 c-40 59 -75 111 -76 115 -2 4 26
41 62 81 36 41 66 77 66 80 0 3 -30 6 -67 6 l-68 0 -50 -61 -50 -61 -3 146 -3
146 -54 0 -55 0 0 -280z"/>
<path d="M960 405 l0 -265 60 0 60 0 0 95 0 95 38 0 c37 0 38 0 85 -95 l47
-95 65 0 c36 0 65 2 65 5 0 3 -25 52 -55 109 l-55 102 31 23 c38 28 59 76 59
133 0 62 -28 109 -80 136 -40 20 -59 22 -182 22 l-138 0 0 -265z m261 146 c21
-26 24 -62 9 -91 -11 -21 -67 -40 -117 -40 l-33 0 0 81 0 81 61 -4 c49 -4 66
-9 80 -27z"/>
<path d="M2710 580 c0 -49 -1 -50 -30 -50 -28 0 -30 -2 -30 -40 0 -38 2 -40
30 -40 l30 0 0 -126 c0 -171 13 -193 118 -194 l62 0 0 45 c0 38 -3 45 -19 45
-49 0 -51 6 -51 121 l0 109 35 0 c34 0 35 1 35 40 0 39 -1 40 -35 40 l-35 0 0
50 0 50 -55 0 -55 0 0 -50z"/>
<path d="M1505 521 c-64 -39 -95 -100 -95 -186 0 -87 37 -157 102 -191 35 -18
141 -18 177 1 134 69 134 311 0 380 -41 22 -147 19 -184 -4z m134 -88 c42 -35
46 -149 6 -193 -23 -25 -67 -26 -89 -1 -57 63 -29 211 39 211 13 0 33 -8 44
-17z"/>
<path d="M2345 521 c-64 -39 -95 -100 -95 -186 0 -87 37 -157 102 -191 35 -18
141 -18 177 1 134 69 134 311 0 380 -41 22 -147 19 -184 -4z m134 -88 c42 -35
46 -149 6 -193 -23 -25 -67 -26 -89 -1 -57 63 -29 211 39 211 13 0 33 -8 44
-17z"/>
<path d="M3340 335 l0 -195 60 0 60 0 0 195 0 195 -60 0 -60 0 0 -195z"/>
</g>
</svg>
