####
#
# OBJ File Generated by Meshlab
#
####
# Object Body_collision2.obj
#
# Vertices: 24
# Faces: 44
#
####
vn 0.301511 0.301511 0.904534
v 0.084716 0.054189 0.019996
vn 0.577350 0.577350 0.577350
v 0.119716 0.074189 0.019996
vn -0.301511 0.301511 0.904534
v -0.085284 0.054189 0.019996
vn -0.577350 0.577350 0.577350
v -0.120284 0.074189 0.019996
vn -0.301511 -0.301511 0.904534
v -0.085284 -0.055811 0.019996
vn -0.577350 -0.577350 0.577350
v -0.120284 -0.075811 0.019996
vn 0.301511 -0.301511 0.904534
v 0.084716 -0.055811 0.019996
vn 0.577350 -0.577350 0.577350
v 0.119716 -0.075811 0.019996
vn -0.577350 -0.577350 -0.577350
v -0.120284 -0.075811 -0.020004
vn -0.577350 0.577350 -0.577350
v -0.120284 0.074189 -0.020004
vn 0.577350 -0.577350 -0.577350
v 0.119716 -0.075811 -0.020004
vn 0.577350 0.577350 -0.577350
v 0.119716 0.074189 -0.020004
vn -0.301511 0.301511 -0.904534
v -0.085284 0.054189 -0.020004
vn -0.301511 -0.301511 -0.904534
v -0.085284 -0.055811 -0.020004
vn 0.301511 -0.301511 -0.904534
v 0.084716 -0.055811 -0.020004
vn 0.301511 0.301511 -0.904534
v 0.084716 0.054189 -0.020004
vn -0.577350 -0.577350 0.577350
v -0.085284 -0.055811 0.032996
vn -0.577350 0.577350 0.577350
v -0.085284 0.054189 0.032996
vn 0.577350 -0.577350 0.577350
v 0.084716 -0.055811 0.032996
vn 0.577350 0.577350 0.577350
v 0.084716 0.054189 0.032996
vn -0.577350 0.577350 -0.577350
v -0.085284 0.054189 -0.033004
vn -0.577350 -0.577350 -0.577350
v -0.085284 -0.055811 -0.033004
vn 0.577350 0.577350 -0.577350
v 0.084716 0.054189 -0.033004
vn 0.577350 -0.577350 -0.577350
v 0.084716 -0.055811 -0.033004
# 24 vertices, 0 vertices normals

f 1//1 2//2 3//3
f 3//3 2//2 4//4
f 3//3 4//4 5//5
f 5//5 4//4 6//6
f 5//5 6//6 7//7
f 7//7 6//6 8//8
f 7//7 8//8 1//1
f 1//1 8//8 2//2
f 6//6 4//4 9//9
f 9//9 4//4 10//10
f 8//8 6//6 11//11
f 11//11 6//6 9//9
f 2//2 8//8 12//12
f 12//12 8//8 11//11
f 4//4 2//2 10//10
f 10//10 2//2 12//12
f 13//13 10//10 12//12
f 10//10 13//13 9//9
f 9//9 13//13 14//14
f 9//9 14//14 11//11
f 11//11 14//14 15//15
f 11//11 15//15 12//12
f 12//12 15//15 16//16
f 12//12 16//16 13//13
f 17//17 18//18 5//5
f 5//5 18//18 3//3
f 19//19 17//17 7//7
f 7//7 17//17 5//5
f 20//20 19//19 1//1
f 1//1 19//19 7//7
f 18//18 20//20 3//3
f 3//3 20//20 1//1
f 19//19 20//20 17//17
f 17//17 20//20 18//18
f 21//21 22//22 13//13
f 13//13 22//22 14//14
f 23//23 21//21 16//16
f 16//16 21//21 13//13
f 24//24 23//23 15//15
f 15//15 23//23 16//16
f 22//22 24//24 14//14
f 14//14 24//24 15//15
f 23//23 24//24 21//21
f 21//21 24//24 22//22
# 44 faces, 0 coords texture

# End of File
