####
#
# OBJ File Generated by Meshlab
#
####
# Object Tibia_collision2.obj
#
# Vertices: 72
# Faces: 152
#
####
vn -1.570796 -4.712401 1.570796
v 0.099871 0.023582 -0.014957
vn -1.570796 -1.570797 -4.712389
v 0.099871 0.023582 -0.019957
vn -1.570796 4.712389 1.570796
v 0.099871 -0.023418 -0.014957
vn -1.570796 1.570796 -4.712389
v 0.099871 -0.023418 -0.019957
vn -1.570796 -1.570796 4.712389
v 0.099871 0.023582 0.020043
vn -1.570796 -1.570797 1.570796
v -0.016129 0.023582 0.020043
vn -1.570796 -4.712389 -1.570796
v 0.099871 0.023582 0.015043
vn 4.712389 -1.570796 -1.570796
v 0.119871 0.023582 0.015043
vn 4.712389 -1.570796 1.570796
v 0.119871 0.023582 -0.014957
vn -3.034546 -3.665193 0.000000
v 0.005121 0.023582 0.000043
vn 1.517273 -3.665192 2.627994
v -0.002754 0.023582 -0.004503
vn 2.627994 -3.665191 1.517273
v -0.004676 0.023582 -0.002582
vn -1.570796 -1.570797 -1.570796
v -0.016129 0.023582 -0.019957
vn 3.034546 -3.665191 0.000000
v -0.005379 0.023582 0.000043
vn 2.627994 -3.665191 -1.517273
v -0.004676 0.023582 0.002668
vn 1.517273 -3.665191 -2.627994
v -0.002754 0.023582 0.004590
vn -0.000000 -3.665192 -3.034546
v -0.000129 0.023582 0.005293
vn -1.517273 -3.665191 -2.627994
v 0.002496 0.023582 0.004590
vn -2.627994 -3.665191 -1.517273
v 0.004418 0.023582 0.002668
vn -2.627994 -3.665192 1.517273
v 0.004418 0.023582 -0.002582
vn -1.517273 -3.665191 2.627994
v 0.002496 0.023582 -0.004503
vn 0.000000 -3.665191 3.034546
v -0.000129 0.023582 -0.005207
vn 2.627994 3.665191 1.517273
v -0.004676 0.026582 -0.002582
vn -1.570796 1.570796 -1.570797
v -0.016129 0.026582 -0.019957
vn 3.034546 3.665191 0.000000
v -0.005379 0.026582 0.000043
vn -1.570796 1.570796 1.570797
v -0.016129 0.026582 0.020043
vn 2.627993 3.665191 -1.517273
v -0.004676 0.026582 0.002668
vn 1.517272 3.665191 -2.627993
v -0.002754 0.026582 0.004590
vn 1.570796 1.570799 1.570796
v 0.119871 0.026582 0.020043
vn -1.517273 3.665192 -2.627994
v 0.002496 0.026582 0.004590
vn 0.000000 3.665192 -3.034546
v -0.000129 0.026582 0.005293
vn 1.517273 3.665192 2.627994
v -0.002754 0.026582 -0.004503
vn -0.000000 3.665191 3.034546
v -0.000129 0.026582 -0.005207
vn 1.570796 1.570798 -1.570796
v 0.119871 0.026582 -0.019957
vn -1.517273 3.665192 2.627994
v 0.002496 0.026582 -0.004503
vn -2.627994 3.665192 1.517273
v 0.004418 0.026582 -0.002582
vn -3.034546 3.665191 0.000000
v 0.005121 0.026582 0.000043
vn -2.627993 3.665192 -1.517273
v 0.004418 0.026582 0.002668
vn -1.570796 1.570796 1.570796
v -0.016129 -0.023418 0.020043
vn -1.570796 -1.570796 1.570797
v -0.016129 -0.026418 0.020043
vn -1.570796 1.570800 4.712389
v 0.099871 -0.023418 0.020043
vn 1.570796 -1.570801 1.570796
v 0.119871 -0.026418 0.020043
vn 1.570796 -1.570798 -1.570796
v 0.119871 -0.026418 -0.019957
vn 4.712389 1.570796 1.570796
v 0.119871 -0.023418 -0.014957
vn 4.712389 1.570796 -1.570796
v 0.119871 -0.023418 0.015043
vn -1.570796 -1.570796 -1.570797
v -0.016129 -0.026418 -0.019957
vn -1.570796 1.570798 -1.570796
v -0.016129 -0.023418 -0.019957
vn -1.570796 4.712400 -1.570796
v 0.099871 -0.023418 0.015043
vn 1.517273 3.665192 2.627994
v -0.002754 -0.023418 -0.004503
vn -0.000000 3.665191 3.034546
v -0.000129 -0.023418 -0.005207
vn 1.517272 3.665191 -2.627993
v -0.002754 -0.023418 0.004590
vn 2.627993 3.665191 -1.517273
v -0.004676 -0.023418 0.002668
vn 3.034546 3.665191 0.000000
v -0.005379 -0.023418 0.000043
vn 2.627994 3.665191 1.517273
v -0.004676 -0.023418 -0.002582
vn -1.517273 3.665192 -2.627994
v 0.002496 -0.023418 0.004590
vn 0.000000 3.665192 -3.034546
v -0.000129 -0.023418 0.005293
vn -1.517273 3.665191 2.627994
v 0.002496 -0.023418 -0.004503
vn -2.627994 3.665191 1.517273
v 0.004418 -0.023418 -0.002582
vn -3.034546 3.665193 0.000000
v 0.005121 -0.023418 0.000043
vn -2.627993 3.665192 -1.517273
v 0.004418 -0.023418 0.002668
vn 2.627994 -3.665191 -1.517273
v -0.004676 -0.026418 0.002668
vn 3.034546 -3.665191 0.000000
v -0.005379 -0.026418 0.000043
vn 2.627994 -3.665191 1.517273
v -0.004676 -0.026418 -0.002582
vn -1.517273 -3.665191 -2.627994
v 0.002496 -0.026418 0.004590
vn -0.000000 -3.665192 -3.034546
v -0.000129 -0.026418 0.005293
vn 1.517273 -3.665191 -2.627994
v -0.002754 -0.026418 0.004590
vn -2.627994 -3.665192 -1.517273
v 0.004418 -0.026418 0.002668
vn -3.034546 -3.665191 0.000000
v 0.005121 -0.026418 0.000043
vn -2.627994 -3.665192 1.517273
v 0.004418 -0.026418 -0.002582
vn -1.517273 -3.665192 2.627994
v 0.002496 -0.026418 -0.004503
vn 0.000000 -3.665191 3.034546
v -0.000129 -0.026418 -0.005207
vn 1.517273 -3.665192 2.627994
v -0.002754 -0.026418 -0.004503
# 72 vertices, 0 vertices normals

f 1//1 2//2 3//3
f 3//3 2//2 4//4
f 5//5 6//6 7//7
f 7//7 6//6 1//1
f 7//7 1//1 8//8
f 8//8 1//1 9//9
f 2//2 1//1 10//10
f 11//11 12//12 13//13
f 13//13 12//12 14//14
f 13//13 14//14 6//6
f 6//6 14//14 15//15
f 6//6 15//15 16//16
f 16//16 17//17 6//6
f 6//6 17//17 18//18
f 6//6 18//18 1//1
f 1//1 18//18 19//19
f 1//1 19//19 10//10
f 10//10 20//20 2//2
f 2//2 20//20 21//21
f 2//2 21//21 13//13
f 13//13 21//21 22//22
f 13//13 22//22 11//11
f 23//23 24//24 25//25
f 25//25 24//24 26//26
f 25//25 26//26 27//27
f 27//27 26//26 28//28
f 29//29 30//30 26//26
f 26//26 30//30 31//31
f 26//26 31//31 28//28
f 23//23 32//32 24//24
f 24//24 32//32 33//33
f 24//24 33//33 34//34
f 34//34 33//33 35//35
f 35//35 36//36 34//34
f 34//34 36//36 37//37
f 34//34 37//37 29//29
f 29//29 37//37 38//38
f 29//29 38//38 30//30
f 26//26 24//24 6//6
f 6//6 24//24 13//13
f 26//26 6//6 5//5
f 39//39 40//40 41//41
f 41//41 40//40 42//42
f 41//41 42//42 5//5
f 5//5 42//42 29//29
f 5//5 29//29 26//26
f 9//9 34//34 29//29
f 34//34 9//9 43//43
f 43//43 9//9 44//44
f 43//43 44//44 42//42
f 42//42 44//44 45//45
f 42//42 45//45 29//29
f 29//29 45//45 8//8
f 29//29 8//8 9//9
f 46//46 47//47 4//4
f 13//13 24//24 2//2
f 2//2 24//24 34//34
f 2//2 34//34 4//4
f 4//4 34//34 43//43
f 4//4 43//43 46//46
f 32//32 22//22 33//33
f 33//33 22//22 21//21
f 33//33 21//21 35//35
f 35//35 21//21 20//20
f 35//35 20//20 36//36
f 36//36 20//20 10//10
f 36//36 10//10 37//37
f 37//37 10//10 19//19
f 37//37 19//19 38//38
f 38//38 19//19 18//18
f 38//38 18//18 30//30
f 30//30 18//18 17//17
f 30//30 17//17 31//31
f 31//31 17//17 16//16
f 31//31 16//16 28//28
f 28//28 16//16 15//15
f 28//28 15//15 27//27
f 27//27 15//15 14//14
f 27//27 14//14 25//25
f 25//25 14//14 12//12
f 25//25 12//12 23//23
f 23//23 12//12 11//11
f 23//23 11//11 32//32
f 32//32 11//11 22//22
f 48//48 41//41 7//7
f 7//7 41//41 5//5
f 3//3 4//4 47//47
f 48//48 45//45 44//44
f 47//47 49//49 50//50
f 51//51 52//52 39//39
f 39//39 52//52 53//53
f 39//39 53//53 47//47
f 47//47 53//53 54//54
f 47//47 54//54 49//49
f 41//41 55//55 39//39
f 39//39 55//55 56//56
f 39//39 56//56 51//51
f 44//44 3//3 48//48
f 48//48 3//3 47//47
f 48//48 47//47 57//57
f 57//57 47//47 50//50
f 57//57 58//58 48//48
f 48//48 58//58 59//59
f 48//48 59//59 41//41
f 41//41 59//59 60//60
f 41//41 60//60 55//55
f 61//61 40//40 62//62
f 62//62 40//40 46//46
f 62//62 46//46 63//63
f 64//64 42//42 65//65
f 65//65 42//42 40//40
f 65//65 40//40 66//66
f 66//66 40//40 61//61
f 64//64 67//67 42//42
f 42//42 67//67 68//68
f 42//42 68//68 43//43
f 43//43 68//68 69//69
f 69//69 70//70 43//43
f 43//43 70//70 71//71
f 43//43 71//71 46//46
f 46//46 71//71 72//72
f 46//46 72//72 63//63
f 39//39 47//47 40//40
f 40//40 47//47 46//46
f 49//49 71//71 50//50
f 50//50 71//71 70//70
f 50//50 70//70 57//57
f 57//57 70//70 69//69
f 57//57 69//69 58//58
f 58//58 69//69 68//68
f 58//58 68//68 59//59
f 59//59 68//68 67//67
f 59//59 67//67 60//60
f 60//60 67//67 64//64
f 60//60 64//64 55//55
f 55//55 64//64 65//65
f 55//55 65//65 56//56
f 56//56 65//65 66//66
f 56//56 66//66 51//51
f 51//51 66//66 61//61
f 51//51 61//61 52//52
f 52//52 61//61 62//62
f 52//52 62//62 53//53
f 53//53 62//62 63//63
f 53//53 63//63 54//54
f 54//54 63//63 72//72
f 54//54 72//72 49//49
f 49//49 72//72 71//71
f 44//44 9//9 3//3
f 3//3 9//9 1//1
f 8//8 45//45 7//7
f 7//7 45//45 48//48
# 152 faces, 0 coords texture

# End of File
